HIERARCHY
ROOT Hips
{
  OFFSET -187.679 86.5976 -156.378
  CHANNELS 6 Xposition Yposition Zposition Zrotation Xrotation Yrotation
  JOINT LeftUpLeg
  {
    OFFSET 8.64259 1.95398 -2.38835
    CHANNELS 3 Zrotation Xrotation Yrotation
    JOINT LeftLeg
    {
      OFFSET 43.7702 0 0
      CHANNELS 3 Zrotation Xrotation Yrotation
      JOINT LeftFoot
      {
        OFFSET 40.6238 0 0
        CHANNELS 3 Zrotation Xrotation Yrotation
        JOINT LeftToeBase
        {
          OFFSET 12.7242 0 0
          CHANNELS 3 Zrotation Xrotation Yrotation
          End Site
          {
            OFFSET 0 0 0
          }
        }
      }
    }
  }
  JOINT RightUpLeg
  {
    OFFSET -8.2249 1.95398 -2.59336
    CHANNELS 3 Zrotation Xrotation Yrotation
    JOINT RightLeg
    {
      OFFSET 43.5653 0 0
      CHANNELS 3 Zrotation Xrotation Yrotation
      JOINT RightFoot
      {
        OFFSET 40.6238 0 0
        CHANNELS 3 Zrotation Xrotation Yrotation
        JOINT RightToeBase
        {
          OFFSET 12.7242 0 0
          CHANNELS 3 Zrotation Xrotation Yrotation
          End Site
          {
            OFFSET 0 0 0
          }
        }
      }
    }
  }
  JOINT Spine
  {
    OFFSET 0.165834 0.87714 6.61349
    CHANNELS 3 Zrotation Xrotation Yrotation
    JOINT Spine1
    {
      OFFSET 7.38963 1.71661e-005 0
      CHANNELS 3 Zrotation Xrotation Yrotation
      JOINT Spine2
      {
        OFFSET 11.9445 1.14441e-005 0
        CHANNELS 3 Zrotation Xrotation Yrotation
        JOINT Spine3
        {
          OFFSET 14.7254 4.19617e-005 0
          CHANNELS 3 Zrotation Xrotation Yrotation
          JOINT Spine4
          {
            OFFSET 10.9679 0 0
            CHANNELS 3 Zrotation Xrotation Yrotation
            JOINT RightShoulder
            {
              OFFSET 2.46616 -1.6653 3.69651
              CHANNELS 3 Zrotation Xrotation Yrotation
              JOINT RightArm
              {
                OFFSET 13.0012 0 0
                CHANNELS 3 Zrotation Xrotation Yrotation
                JOINT RightForeArm
                {
                  OFFSET 28.7848 1.52588e-005 0
                  CHANNELS 3 Zrotation Xrotation Yrotation
                  JOINT RightHand
                  {
                    OFFSET 26.5688 1.52588e-005 0
                    CHANNELS 3 Zrotation Xrotation Yrotation
                    End Site
                    {
                      OFFSET 0 0 0
                    }
                  }
                }
              }
            }
            JOINT LeftShoulder
            {
              OFFSET 2.38034 -1.29275 -3.7523
              CHANNELS 3 Zrotation Xrotation Yrotation
              JOINT LeftArm
              {
                OFFSET 16.3182 6.10352e-005 0
                CHANNELS 3 Zrotation Xrotation Yrotation
                JOINT LeftForeArm
                {
                  OFFSET 27.0901 0 0
                  CHANNELS 3 Zrotation Xrotation Yrotation
                  JOINT LeftHand
                  {
                    OFFSET 24.5451 1.52588e-005 0
                    CHANNELS 3 Zrotation Xrotation Yrotation
                    End Site
                    {
                      OFFSET 0 0 0
                    }
                  }
                }
              }
            }
            JOINT Neck
            {
              OFFSET 5.0226 -0.0266342 0
              CHANNELS 3 Zrotation Xrotation Yrotation
              JOINT Head
              {
                OFFSET 6.69363 2.86102e-005 0
                CHANNELS 3 Zrotation Xrotation Yrotation
                End Site
                {
                  OFFSET 0 0 0
                }
              }
            }
          }
        }
      }
    }
  }
}
MOTION
Frames:	7
Frame Time:	0.0416667
15.9304 91.8525 -273.284 80.1499 -41.1149 84.9179 -162.957 -2.4642 121.613 -19.1122 78.1832 13.4014 79.8327 2.01778 -4.06941 28.6721 4.71889 -15.5021 151.242 13.7277 95.6752 -86.5108 21.2576 19.3314 91.5805 -4.39719 -0.171141 20.7894 -3.04542 4.89843 -5.9312 8.72183 -91.6082 9.33156 -12.5491 -2.26513 -2.27874 -12.6365 -1.70186 -25.2162 -11.2819 -5.97579 -5.2036 -11.2819 -5.9758 95.7175 -33.5032 -94.425 46.306 -14.4591 40.9225 -47.5824 -5.34181 -70.4117 2.09966 -0.00973782 -4.1984 -84.9435 -23.9126 81.7896 0.154033 -0.400926 -48.8018 36.2643 -16.8702 -101.718 4.81518 0.751213 9.09469 41.7149 2.01148 -8.17283 -4.96581 6.06926 -2.31743 
16.1209 94.4508 -268.039 75.4182 -47.2233 82.0772 -159.754 -2.41605 120.401 -28.2717 81.6725 21.3622 64.2638 -0.551306 5.18842 49.469 9.29015 -16.5677 152.947 27.9929 93.8012 -80.9211 18.9001 15.8983 92.242 -4.65069 1.36748 20.2771 -2.83103 4.038 -5.87663 8.45703 -91.8598 9.84022 -12.5557 -2.68493 -1.77065 -12.6614 -2.12109 -24.6941 -11.1627 -6.37554 -4.6815 -11.1627 -6.37553 95.1142 -31.8343 -95.9497 46.4175 -16.9844 46.2017 -45.6544 -2.66422 -70.7383 0.246363 -0.0247539 -4.62455 -83.2462 -19.3446 84.4038 -0.775374 -4.6962 -47.7544 33.1921 -16.5428 -105.476 4.23772 0.595938 7.6196 42.3349 5.86841 -6.41568 -6.20535 8.8803 -3.2147 
15.8747 95.9948 -262.009 69.4344 -56.8962 77.2524 -157.395 -6.27872 117.756 -27.7107 75.0645 20.7075 52.0672 -5.50989 4.4764 42.5395 6.7964 -11.7203 159.007 38.4316 93.5614 -69.4502 14.7243 13.122 86.4483 -4.47257 0.868327 21.4719 -2.86832 4.80356 -5.36976 8.28909 -92.1026 10.1548 -11.6577 -3.19252 -1.46575 -11.7867 -2.66973 -24.3106 -10.156 -6.57733 -4.29796 -10.156 -6.57734 94.006 -29.5624 -98.7179 46.3858 -19.091 49.1271 -43.6471 -0.940686 -70.3018 3.15384 -0.0698005 -5.99821 -82.8786 -18.858 85.1436 -0.234954 -6.50569 -43.7137 31.6223 -16.8672 -108.486 3.36651 0.529828 8.05331 42.966 10.3602 -2.29866 -7.35806 11.1289 -5.5258 
15.4892 96.01 -255.201 55.4135 -68.0071 64.7963 -159.192 -15.1062 114.073 -15.2344 57.2876 10.8503 48.2121 -5.23413 0.481418 17.8368 -3.53645 -1.9457 165.654 44.9917 96.2529 -55.3254 8.49372 10.4364 82.0262 -5.17546 0.817164 21.1396 -2.82806 4.50627 -4.31803 8.16482 -92.2581 10.3973 -9.63535 -3.64459 -1.24155 -9.78625 -3.21365 -23.9534 -8.09437 -6.38357 -3.94078 -8.09436 -6.38357 92.8756 -30.6118 -100.68 43.6345 -21.9813 49.2038 -40.4666 0.558746 -69.4666 4.32425 -0.133939 -7.42458 -83.335 -20.0248 84.3693 1.46774 -5.20989 -41.231 30.3597 -17.3405 -109.407 2.33006 0.424874 8.24668 42.3324 12.9119 -0.780175 -6.697 12.7333 -6.07667 
15.2371 94.6109 -248.232 23.5696 -77.5377 32.4424 -167.212 -18.8038 102.444 -28.465 40.669 10.2346 49.9936 -2.99109 2.07117 24.7357 -0.870607 -1.93063 170.358 48.015 99.6272 -46.4748 1.64759 7.70029 78.7768 -5.61387 0.535361 21.6573 -2.60861 4.18972 -3.12617 8.21487 -92.0565 10.3338 -7.16846 -3.46404 -1.32107 -7.31387 -3.14403 -23.9319 -5.79679 -5.46102 -3.91928 -5.79679 -5.46104 91.541 -34.6562 -102.05 36.4048 -23.5589 43.9941 -39.0784 -0.641265 -67.6361 4.15229 -0.159318 -8.09341 -84.2131 -23.9609 83.3512 4.01912 -1.37884 -39.4495 32.7484 -19.6086 -109.22 2.02279 0.403744 8.54146 42.9309 14.0972 -0.803022 -6.45019 13.8222 -5.73037 
15.2062 92.5098 -240.917 -28.8119 -79.7645 -22.3524 -171.441 -14.2618 91.1992 -49.0681 32.9508 8.13767 53.0743 -2.62176 2.00855 28.3138 1.52129 -5.29205 172.708 47.5919 101.576 -45.9202 1.77364 5.78581 75.665 -5.04959 0.886639 24.6046 -1.43647 2.39787 -2.07255 8.30834 -91.4743 10.2023 -4.8023 -2.51941 -1.46181 -4.90848 -2.30528 -24.0267 -3.82345 -3.84678 -4.01406 -3.82346 -3.84679 90.1178 -39.7561 -103.1 27.9685 -19.487 36.1217 -43.4099 -5.56953 -67.8728 2.93653 -0.101808 -7.31038 -86.1241 -28.1212 80.4614 5.55163 4.6901 -37.2332 36.0749 -21.0292 -105.716 2.57167 0.417258 7.44445 41.9148 13.57 -1.09992 -5.237 13.4156 -5.54183 
14.9463 90.9159 -232.76 -57.6267 -77.8389 -51.7587 -169.218 -7.36796 90.4657 -65.9776 29.1026 4.43217 52.9819 -2.92459 1.75104 31.3008 2.34061 -4.78509 173.489 45.9337 102.879 -51.4962 0.175917 4.48201 69.3568 -3.09726 -1.16708 20.1864 -1.72551 0.83696 -1.23223 8.33371 -91.07 10.1774 -2.9433 -1.87574 -1.49146 -3.023 -1.74434 -24.0326 -2.2437 -2.67358 -4.02 -2.24369 -2.67358 88.9937 -44.1893 -103.718 21.9822 -10.5097 28.7169 -47.7225 -8.67782 -70.6855 2.93462 -0.0290549 -5.12252 -87.7819 -31.0802 78.0672 5.08068 14.0945 -36.0506 42.2354 -21.0985 -98.06 1.20786 0.199785 4.69788 37.1766 11.7237 -1.8063 -2.69182 11.8616 -3.6628 
